<?xml version="1.0" encoding="utf-8"?>
<!-- Generator: Adobe Illustrator 18.0.0, SVG Export Plug-In . SVG Version: 6.00 Build 0)  -->
<!DOCTYPE svg PUBLIC "-//W3C//DTD SVG 1.1//EN" "http://www.w3.org/Graphics/SVG/1.1/DTD/svg11.dtd">
<svg version="1.1" id="Layer_1" xmlns="http://www.w3.org/2000/svg" xmlns:xlink="http://www.w3.org/1999/xlink" x="0px" y="0px"
	 viewBox="-303 -17.1 320 32" enable-background="new -303 -17.1 320 32" xml:space="preserve">
<path fill="#FFFFFF" d="M-143,14.9c8.8,0,16-7.2,16-16s-7.2-16-16-16s-16,7.2-16,16S-151.8,14.9-143,14.9z M-143-14.1
	c7.2,0,13,5.8,13,13s-5.8,13-13,13s-13-5.8-13-13S-150.2-14.1-143-14.1z M-151-7.1c0-1.1,0.9-2,2-2s2,0.9,2,2s-0.9,2-2,2
	S-151-6-151-7.1z M-139-7.1c0-1.1,0.9-2,2-2s2,0.9,2,2s-0.9,2-2,2S-139-6-139-7.1z M-137,2.5l2.6,1.5c-1.7,2.9-4.9,4.9-8.6,4.9
	s-6.8-1.9-8.6-4.9l2.6-1.5c1.2,2,3.5,3.4,6,3.4S-138.2,4.5-137,2.5z"/>
<path fill="#FFFFFF" d="M-215,14.9c8.8,0,16-7.2,16-16s-7.2-16-16-16s-16,7.2-16,16S-223.8,14.9-215,14.9z M-215-14.1
	c7.2,0,13,5.8,13,13s-5.8,13-13,13s-13-5.8-13-13S-222.2-14.1-215-14.1z M-223-7.1c0-1.1,0.9-2,2-2s2,0.9,2,2s-0.9,2-2,2
	S-223-6-223-7.1z M-211-7.1c0-1.1,0.9-2,2-2s2,0.9,2,2s-0.9,2-2,2S-211-6-211-7.1z M-221,7.3l-2.6-1.5c1.7-2.9,4.9-4.9,8.6-4.9
	s6.8,1.9,8.6,4.9l-2.6,1.5c-1.2-2-3.5-3.4-6-3.4S-219.8,5.3-221,7.3z"/>
<path fill="#FFFFFF" d="M-71,14.9c8.8,0,16-7.2,16-16s-7.2-16-16-16s-16,7.2-16,16S-79.8,14.9-71,14.9z M-71-14.1
	c7.2,0,13,5.8,13,13s-5.8,13-13,13s-13-5.8-13-13S-78.2-14.1-71-14.1z M-71,1.6c3.6,0,7.1-1,10-2.7c-0.5,5.6-4.8,9.9-10,9.9
	s-9.5-4.4-10-9.9C-78.1,0.6-74.6,1.6-71,1.6L-71,1.6z M-79-6.1c0-1.7,0.9-3,2-3s2,1.3,2,3s-0.9,3-2,3S-79-4.5-79-6.1z M-67-6.1
	c0-1.7,0.9-3,2-3c1.1,0,2,1.3,2,3s-0.9,3-2,3C-66.1-3.1-67-4.5-67-6.1z"/>
<path fill="#FFFFFF" d="M1,14.9c8.8,0,16-7.2,16-16s-7.2-16-16-16s-16,7.2-16,16S-7.8,14.9,1,14.9z M1-14.1c7.2,0,13,5.8,13,13
	s-5.8,13-13,13s-13-5.8-13-13S-6.2-14.1,1-14.1z M-9-1.1v2c0,4.4,3.6,8,8,8h4c4.4,0,8-3.6,8-8v-2H-9z M-3,6.5
	c-0.8-0.3-1.6-0.8-2.2-1.4C-6.4,4-7,2.5-7,0.9h4V6.5z M3,6.9h-4v-6h4V6.9z M7.2,5.1C6.6,5.8,5.8,6.2,5,6.5V0.9h4
	C9,2.5,8.4,4,7.2,5.1z M-8-5.1L-8-5.1c0.3,0,0.6-0.2,0.6-0.5c0.2-1.1,1.2-2,2.3-2s2.1,0.8,2.3,2C-2.6-5.3-2.3-5.1-2-5.1
	s0.6-0.2,0.6-0.5c0-0.2,0.1-0.4,0.1-0.6c0-2-1.6-3.6-3.6-3.6s-3.6,1.6-3.6,3.6c0,0.2,0,0.4,0.1,0.6C-8.5-5.3-8.3-5.1-8-5.1L-8-5.1z
	 M4-5.1L4-5.1c0.3,0,0.6-0.2,0.6-0.5c0.2-1.1,1.2-2,2.3-2s2.1,0.8,2.3,2c0,0.3,0.3,0.5,0.6,0.5s0.6-0.2,0.6-0.5
	c0-0.2,0.1-0.4,0.1-0.6c0-2-1.6-3.6-3.6-3.6S3.4-8.2,3.4-6.2c0,0.2,0,0.4,0.1,0.6C3.5-5.3,3.7-5.1,4-5.1L4-5.1z"/>
<path fill="#FFFFFF" d="M-287,14.9c8.8,0,16-7.2,16-16s-7.2-16-16-16s-16,7.2-16,16S-295.8,14.9-287,14.9z M-287-14.1
	c7.2,0,13,5.8,13,13s-5.8,13-13,13s-13-5.8-13-13S-294.2-14.1-287-14.1z M-281,7.3c-1.2-2-3.5-3.4-6-3.4s-4.8,1.4-6,3.4l-2.6-1.5
	c1.7-2.9,4.9-4.9,8.6-4.9s6.8,1.9,8.6,4.9L-281,7.3z M-279-8.4c0.1,0.5-0.2,1.1-0.7,1.2c-0.6,0.1-1.2,0.4-1.8,0.7
	c0.3,0.4,0.5,0.8,0.5,1.4c0,1.1-0.9,2-2,2s-2-0.9-2-2c0,0,0-0.1,0-0.1c0.1-1.5,1.4-2.5,2.6-3c1.1-0.5,2.2-0.8,2.2-0.8
	C-279.7-9.2-279.2-8.9-279-8.4L-279-8.4z M-295-8.4c0.1-0.5,0.7-0.9,1.2-0.7c0,0,1.1,0.3,2.2,0.8c1.1,0.6,2.5,1.6,2.5,3
	c0,0,0,0.1,0,0.1c0,1.1-0.9,2-2,2c-1.1,0-2-0.9-2-2c0-0.5,0.2-1,0.5-1.4c-0.6-0.3-1.2-0.5-1.8-0.7C-294.8-7.3-295.1-7.8-295-8.4
	L-295-8.4z"/>
</svg>
